<?xml version="1.0" encoding="utf-8"?>
<!-- Generator: Adobe Illustrator 25.4.1, SVG Export Plug-In . SVG Version: 6.00 Build 0)  -->
<svg version="1.1" id="_x3C_Layer_x3E_" xmlns="http://www.w3.org/2000/svg" xmlns:xlink="http://www.w3.org/1999/xlink" x="0px"
	 y="0px" viewBox="0 0 2760 1840" style="enable-background:new 0 0 2760 1840;" xml:space="preserve">
<style type="text/css">
	.st0{display:none;fill:#FFFFFF;}
	.st1{fill:#B8D5DC;}
	.st2{opacity:0.6;}
	.st3{fill:#ACC9C5;}
	.st4{fill:#CCD39C;}
	.st5{fill:#C2C68E;}
	.st6{opacity:0.5;}
	.st7{fill:#68A1BF;}
	.st8{fill:#92BCB5;}
	.st9{fill:#5C305D;}
	.st10{fill:#A9CAEC;}
	.st11{fill:#764678;}
	.st12{fill:#331832;}
	.st13{fill:#366F90;}
	.st14{fill:#EF8062;}
	.st15{fill:#8FB3E3;}
	.st16{fill:#DAEBE8;}
	.st17{fill:#92A5E6;}
	.st18{fill:#020202;}
	.st19{fill:#FFB27D;}
	.st20{fill:#E9633E;}
	.st21{fill:#FFFFFF;}
	.st22{fill:#080435;}
	.st23{opacity:0.3;}
	.st24{fill:#EC865C;}
	.st25{fill:#E9845C;}
</style>
<rect class="st0" width="2760" height="1840"/>
<g>
	<g>
		<ellipse class="st1" cx="1357.8" cy="1409.3" rx="1304.7" ry="145.7"/>
	</g>
	<g class="st2">
		<path class="st3" d="M1991.9,1094.4c0,0,138.7-583.8,295.7-540.3c157,43.6-179.6,370.6-214.6,541.9L1991.9,1094.4z"/>
	</g>
	<g>
		<g>
			<path class="st4" d="M2003.1,981.8c0,0,352.5-439.4,494-333.6c141.5,105.7-315.6,239-413.3,370.4L2003.1,981.8z"/>
		</g>
		<g>
			<g>
				<path class="st5" d="M2048.1,1002.8c65.8-91.9,168.4-168.4,242.8-216.4c80.7-52,146.7-82.6,147.3-82.9l-1.9-4.1
					c-0.7,0.3-66.9,31-147.9,83.2c-74.8,48.2-177.8,125-244.1,217.6L2048.1,1002.8z"/>
			</g>
		</g>
	</g>
	<g>
		<g>
			<g>
				<path class="st3" d="M2564.8,1227.9c-82.5,13.4-75.4,137.5-167.1,109.8c-91.7-27.8-109.4-26.8-130.5,4.7
					c0,0-19.4,38.1-56.7,42.7c-147.2,17.9-335.3-208.2-176.9-319c11.4-8,27.6-10.5,45.5-12.3c96.8-10,124.4,35.7,206-73.5
					c81.6-109.2,175.8,58.4,240.5,56.1c64.7-2.3,122.5-18.7,169.1,52.2C2741.2,1159.4,2647.3,1214.6,2564.8,1227.9z"/>
			</g>
		</g>
		<g class="st6">
			<g>
				<g>
					<path class="st7" d="M2071.7,1225.3l-2.8-4.7c2.1-1.2,212.8-124.5,636.2-112.2l-0.2,5.5
						C2283.1,1101.7,2073.8,1224.1,2071.7,1225.3z"/>
				</g>
			</g>
			<g>
				<g>
					<path class="st7" d="M2343.4,1075.8c-53.1-53.1-60.9-93.5-61.2-95.2l5.4-1c0.1,0.4,7.9,40.5,59.7,92.3L2343.4,1075.8z"/>
				</g>
			</g>
			<g>
				<g>
					<path class="st7" d="M2350,1135.5c-14.2-28.4-10.6-68.2,10.3-114.9c15.7-35,35.9-62,36.1-62.3l4.4,3.3
						c-0.8,1.1-78.6,106-45.9,171.4L2350,1135.5z"/>
				</g>
			</g>
			<g>
				<g>
					<path class="st7" d="M2461.8,1131.8c-6.3-5.9-9.7-9.7-9.9-9.9l4.1-3.6c0.7,0.8,72.4,80.7,184.2,83.2l-0.1,5.5
						C2550,1205,2485.4,1153.8,2461.8,1131.8z"/>
				</g>
			</g>
			<g>
				<g>
					<path class="st7" d="M2510,1261.6c-24-29.8-29.8-58.6-30.4-77.5c-0.7-20.6,4.3-34,4.5-34.5l5.1,2c-0.2,0.5-18.9,52.1,25,106.6
						L2510,1261.6z"/>
				</g>
			</g>
		</g>
	</g>
	<g class="st2">
		<path class="st3" d="M2471.5,898c22.5,0.5,29.1,7.9,28.8,16.7c-0.2,8.8-7.1,15.8-29.6,15.3c-41-1-60.5-17.5-60.5-17.5
			S2429.9,897,2471.5,898z"/>
	</g>
	<g class="st2">
		<path class="st3" d="M2433.7,842.2c15.1-14.9,24.3-14.5,30.2-8.5c5.8,5.9,6,15.1-9.1,30c-27.5,27.1-51.4,29.4-51.4,29.4
			S2405.7,869.6,2433.7,842.2z"/>
	</g>
	<g>
		<g>
			<g>
				<path class="st3" d="M712.6,429.3c-15.1,13.7-24,13-29.4,7c-5.4-5.9-5.2-14.8,9.9-28.5c27.6-24.9,50.6-26.3,50.6-26.3
					S740.6,404,712.6,429.3z"/>
			</g>
			<g>
				<g>
					<g>
						<path class="st3" d="M800.5,897.7l-3.8,0.5c-0.1-0.6-7.4-60.1-44.9-141.7C717.3,681.1,649.4,571,521.9,474.2l2.3-3.1
							c128.2,97.4,196.4,208.1,231.2,283.8C793.1,837.1,800.5,897.1,800.5,897.7z"/>
					</g>
				</g>
				<g>
					<g>
						<path class="st3" d="M656.5,599.3l-3.6-1.4c50.1-131-23.7-262.2-24.4-263.5l3.4-1.9C632.6,333.8,707.3,466.5,656.5,599.3z"/>
					</g>
				</g>
				<g>
					<g>
						<path class="st3" d="M586.9,549.7c-38.4,8-71.4-5.2-71.8-5.4l1.5-3.6c0.4,0.2,42.7,17,86.6,0.2l1.4,3.6
							C598.6,546.8,592.7,548.5,586.9,549.7z"/>
					</g>
				</g>
				<g>
					<g>
						<path class="st3" d="M515,453.6c23.8,13.9,27.5,23.6,23.5,30.5c-4,6.9-14.4,8.4-38.1-5.5c-43.3-25.3-56.9-50.1-56.9-50.1
							S471.1,427.9,515,453.6z"/>
					</g>
				</g>
				<g>
					<g>
						<path class="st3" d="M522.7,530c26.8,6.1,33.4,14.2,31.6,22c-1.8,7.8-11.2,12.3-38,6.2c-48.9-11.1-69.3-30.6-69.3-30.6
							S473,518.7,522.7,530z"/>
					</g>
				</g>
				<g>
					<g>
						<path class="st3" d="M613.1,481.4c8.6,18.5,5.3,26.7-2,30.1c-7.3,3.4-15.7,0.6-24.3-17.9c-15.7-33.7-10.1-56.1-10.1-56.1
							S597.2,447.2,613.1,481.4z"/>
					</g>
				</g>
				<g>
					<g>
						<path class="st3" d="M636.7,315.5c11.7,24.9,9.3,35.1,2.1,38.5c-7.2,3.4-16.6-1.2-28.3-26.1c-21.3-45.4-18.5-73.5-18.5-73.5
							S615,269.4,636.7,315.5z"/>
					</g>
				</g>
			</g>
		</g>
	</g>
	<g>
		<path class="st3" d="M903.1,1223.1c0,0-145-621.9-312.3-576.2c-167.3,45.7,189.5,395.2,226,577.5L903.1,1223.1z"/>
	</g>
	<g>
		<g>
			<path class="st8" d="M803.4,1110c0,0-276.2-482.3-430.3-400.9C219,790.4,644,990.4,719.1,1133.4L803.4,1110z"/>
		</g>
		<g>
			<g>
				<path class="st7" d="M756.4,1123.5c-50.1-99.7-138.3-190-203.5-248.1c-70.7-63.1-130.3-103-130.9-103.4l2.5-3.7
					c0.6,0.4,60.4,40.5,131.4,103.8c65.5,58.4,154.1,149.1,204.5,249.5L756.4,1123.5z"/>
			</g>
		</g>
	</g>
	<g>
		<g>
			<g>
				<path class="st4" d="M209,1107.9c81.3,34.3,43,159.9,144,154.3c85.6-4.8,93.8-11,117.7,18c7.8,9.5,14.4,20,19.1,31.3
					c5.8,14.1,18.7,36.7,43.5,46c146.5,55.2,395.9-129.7,261.1-283c-9.7-11.1-25.7-17.6-43.5-24c-96.8-34.4-136.6,5.5-193-126.9
					c-56.4-132.4-194.9,16-260.7-2.5c-65.8-18.6-121-49.8-186.5,11.3C45.3,993.5,127.8,1073.7,209,1107.9z"/>
			</g>
		</g>
		<g>
			<g>
				<g>
					<path class="st5" d="M715.4,1228.4l4.1-4.1c-1.8-1.8-187.1-180.8-624.5-274l-1.2,5.7C529.5,1048.8,713.6,1226.6,715.4,1228.4z"
						/>
				</g>
			</g>
			<g>
				<g>
					<path class="st5" d="M474.1,1007.2c67.8-41.2,85.8-80.7,86.5-82.4l-5.3-2.3c-0.2,0.4-18.2,39.6-84.2,79.7L474.1,1007.2z"/>
				</g>
			</g>
			<g>
				<g>
					<path class="st5" d="M452.5,1066.8c21.7-25.6,28-67.3,18.1-120.4c-7.4-39.8-21.3-72.6-21.4-72.9l-5.3,2.3
						c0.5,1.3,54.1,128.4,4.2,187.3L452.5,1066.8z"/>
				</g>
			</g>
			<g>
				<g>
					<path class="st5" d="M338.7,1035.1c8-4.5,12.4-7.5,12.6-7.7l-3.3-4.8c-0.9,0.7-94.4,64.7-209.7,39.4l-1.2,5.7
						C230,1088.1,309,1051.7,338.7,1035.1z"/>
				</g>
			</g>
			<g>
				<g>
					<path class="st5" d="M256.9,1156.1c32-24.5,45.2-52.6,50.5-71.9c5.8-20.9,4.1-35.9,4-36.6l-5.8,0.7
						c0.1,0.6,6.4,58.2-52.3,103.1L256.9,1156.1z"/>
				</g>
			</g>
		</g>
	</g>
	<g>
		<path class="st9" d="M2094.2,1368.2L767,1352.9c-28.4-0.3-51.3-23.5-51.3-51.9V491c0-28.3,22.7-51.4,51.1-51.9l1310.1-20.1
			c28.5-0.4,52.1,22.3,52.7,50.8l17.1,845.3C2147.3,1344.5,2123.5,1368.5,2094.2,1368.2z"/>
	</g>
	<g>
		<path class="st10" d="M2055.4,1207.5h-1264c-12.7,0-23-10.3-23-23V523.6c0-12.7,10.3-23,23-23h1264c12.7,0,23,10.3,23,23v660.9
			C2078.4,1197.2,2068.1,1207.5,2055.4,1207.5z"/>
	</g>
	<g>
		<polygon class="st11" points="747.4,1250.8 371.3,1368.2 2478,1371.2 2145.4,1250.8 		"/>
	</g>
	<g>
		<path class="st12" d="M352.8,1385.5v21.4c0,9.6,8.3,17.3,18.5,17.3H2460c19.4,0,35.3-14.3,36.3-32.4l0.1-2.4
			c0.5-9.9-7.9-18.2-18.4-18.2l-2106.7-3.1C361.1,1368.2,352.8,1375.9,352.8,1385.5z"/>
	</g>
	<g>
		<g>
			
				<ellipse transform="matrix(0.2298 -0.9732 0.9732 0.2298 624.0343 1719.939)" class="st12" cx="1398.6" cy="465.7" rx="15.2" ry="15.2"/>
		</g>
	</g>
	<g>
		<path class="st13" d="M1654.3,1145.8H864.9c-17.1,0-31-13.9-31-31V593.9c0-17.1,13.9-31,31-31h789.3c17.1,0,31,13.9,31,31v520.8
			C1685.3,1131.9,1671.4,1145.8,1654.3,1145.8z"/>
	</g>
	<g>
		<path class="st13" d="M1999.4,1145.8h-252c-10,0-18.1-8.1-18.1-18.1V580.9c0-10,8.1-18.1,18.1-18.1h252c10,0,18.1,8.1,18.1,18.1
			v546.8C2017.5,1137.7,2009.4,1145.8,1999.4,1145.8z"/>
	</g>
	<g>
		<rect x="874.4" y="602.9" class="st14" width="287.4" height="15.7"/>
	</g>
	<g>
		<rect x="874.4" y="728.8" class="st15" width="311.7" height="15.7"/>
	</g>
	<g>
		<rect x="874.4" y="868.2" class="st14" width="212.3" height="15.7"/>
	</g>
	<g>
		<rect x="1106.3" y="868.2" class="st15" width="212.3" height="15.7"/>
	</g>
	<g>
		<rect x="917.3" y="1019.1" class="st9" width="311.7" height="15.7"/>
	</g>
	<g>
		<rect x="1019.1" y="1057.3" class="st8" width="311.7" height="15.7"/>
	</g>
	<g>
		<rect x="1003.1" y="906.2" class="st8" width="206.6" height="15.7"/>
	</g>
	<g>
		<rect x="1231.8" y="906.2" class="st8" width="137.2" height="15.7"/>
	</g>
	<g>
		<rect x="1097.5" y="939.1" class="st8" width="177.3" height="15.7"/>
	</g>
	<g>
		<rect x="1009.1" y="772.1" class="st8" width="150.8" height="15.7"/>
	</g>
	<g>
		<rect x="1067" y="805.2" class="st15" width="253.4" height="15.7"/>
	</g>
	<g>
		<rect x="1183.7" y="772.1" class="st8" width="120" height="15.7"/>
	</g>
	<g>
		<g>
			<rect x="1772.7" y="602.9" class="st9" width="111.2" height="7.9"/>
		</g>
		<g>
			<rect x="1772.7" y="650" class="st8" width="71.7" height="7.9"/>
		</g>
		<g>
			<rect x="1856.7" y="650" class="st8" width="83.7" height="7.9"/>
		</g>
		<g>
			<rect x="1906.8" y="602.9" class="st8" width="67.3" height="7.9"/>
		</g>
		<g>
			<rect x="1772.7" y="626.5" class="st8" width="160.2" height="7.9"/>
		</g>
	</g>
	<g>
		<g>
			<rect x="1772.7" y="709.1" class="st14" width="111.2" height="7.9"/>
		</g>
		<g>
			<rect x="1772.7" y="756.2" class="st8" width="71.7" height="7.9"/>
		</g>
		<g>
			<rect x="1856.7" y="756.2" class="st8" width="83.7" height="7.9"/>
		</g>
		<g>
			<rect x="1906.8" y="709.1" class="st8" width="67.3" height="7.9"/>
		</g>
		<g>
			<rect x="1772.7" y="732.7" class="st8" width="160.2" height="7.9"/>
		</g>
	</g>
	<g>
		<g>
			<rect x="1772.7" y="815.3" class="st15" width="111.2" height="7.9"/>
		</g>
		<g>
			<rect x="1772.7" y="862.4" class="st8" width="71.7" height="7.9"/>
		</g>
		<g>
			<rect x="1856.7" y="862.4" class="st8" width="83.7" height="7.9"/>
		</g>
		<g>
			<rect x="1906.8" y="815.3" class="st8" width="67.3" height="7.9"/>
		</g>
		<g>
			<rect x="1772.7" y="838.9" class="st8" width="160.2" height="7.9"/>
		</g>
	</g>
	<g>
		<g>
			<rect x="1772.7" y="919.5" class="st14" width="111.2" height="7.9"/>
		</g>
		<g>
			<rect x="1772.7" y="966.6" class="st8" width="71.7" height="7.9"/>
		</g>
		<g>
			<rect x="1856.7" y="966.6" class="st8" width="83.7" height="7.9"/>
		</g>
		<g>
			<rect x="1906.8" y="919.5" class="st8" width="67.3" height="7.9"/>
		</g>
		<g>
			<rect x="1772.7" y="943" class="st8" width="160.2" height="7.9"/>
		</g>
	</g>
	<g>
		<g>
			<rect x="1772.7" y="1014" class="st8" width="111.2" height="7.9"/>
		</g>
		<g>
			<rect x="1772.7" y="1061.1" class="st8" width="71.7" height="7.9"/>
		</g>
		<g>
			<rect x="1856.7" y="1061.1" class="st8" width="83.7" height="7.9"/>
		</g>
		<g>
			<rect x="1906.8" y="1014" class="st8" width="67.3" height="7.9"/>
		</g>
		<g>
			<rect x="1772.7" y="1037.5" class="st8" width="160.2" height="7.9"/>
		</g>
	</g>
	<g>
		<rect x="1325.5" y="772.1" class="st14" width="121.7" height="15.7"/>
	</g>
	<g>
		<rect x="990.9" y="652.3" class="st16" width="311.7" height="15.7"/>
	</g>
	<g>
		<rect x="1330.8" y="652.3" class="st15" width="215.1" height="15.7"/>
	</g>
	<g>
		<rect x="1413.9" y="602.9" class="st16" width="179.7" height="15.7"/>
	</g>
	<g>
		<g>
			<path class="st12" d="M2249.3,1322.8c0,0-0.3,12.3-8.6,15.7s-32.3,6.6-23.3,14.5c5.2,4.5,29.4,1.6,36.3,1.6
				c6.9,0,13.3,3,18.4-1.6c5.6-5,0-30.2,0-30.2s-5.9,3.1-11.2,2.9C2253.1,1325.6,2249.3,1322.8,2249.3,1322.8z"/>
		</g>
		<g>
			<path class="st12" d="M2344.5,1322.8c0,0-0.3,12.3-8.6,15.7c-8.3,3.5-32.3,6.6-23.3,14.5c5.2,4.5,29.4,1.6,36.3,1.6
				c6.9,0,13.3,3,18.4-1.6c5.6-5,0-30.2,0-30.2s-5.9,3.1-11.2,2.9C2348.3,1325.6,2344.5,1322.8,2344.5,1322.8z"/>
		</g>
		<g>
			<path class="st13" d="M2187.6,986.9c0,0-1.5,51.3,14.8,149.7c11.8,71,25.8,142.6,32.6,177c2.4,12.3,12.8,21.3,25,21.7l6.6,0.3
				c13.2,0.5,24-10.8,23-24.3l-16.6-232.2l-4.1-76.4L2187.6,986.9z"/>
		</g>
		<g>
			<path class="st12" d="M2337.4,1032c-0.8,6.2-36.1,5.5-79.3,0c-43.2-5.5-76.9-14.8-76.1-21.1c0.8-6.2,35.6-7,78.9-1.5
				C2304.1,1014.9,2338.2,1025.8,2337.4,1032z"/>
		</g>
		<g>
			<path class="st13" d="M2237.3,1023.5l92.3,296.5c3.9,12.4,15,20.9,27.8,21.1l5.5,0.1c13.1,0.2,23.1-11.9,20.7-25.1l-50.5-278.6
				c-0.7-3.3-3.2-5.9-6.4-6.9C2309.4,1025.7,2235.6,1011.2,2237.3,1023.5z"/>
		</g>
		<g>
			<path class="st17" d="M2323,861.3c0,0-12.3-34.5-56-33c-43.7,1.6-76.8,59.1-85,182.6c0,0,71.6-15.7,155.5,20.9
				C2337.5,1031.9,2342.2,911.7,2323,861.3z"/>
		</g>
		<g>
			<path class="st17" d="M2353.7,859.2l-31,19.8c0,0-79.7,8-100.8,4.1c-21.1-3.8-24.4-19.4-24.4-19.4s20.1-27.6,58.4-34.4
				c3.6-0.6,7.2-0.8,11.1-1c6.5-0.5,13-0.3,19.4,0.4C2324.1,832.9,2353.7,859.2,2353.7,859.2z"/>
		</g>
		<g>
			<path class="st18" d="M2278.5,1156l-19.8-60.3c-4.5-13.6-13.6-24.9-25.8-31.9l0.8-1.3c12.5,7.2,22,18.8,26.6,32.7l19.8,60.3
				L2278.5,1156z"/>
		</g>
		<g>
			<g>
				<path class="st14" d="M2236.9,820.7c-0.2-0.1-5.9-1.4-7.6-5.5c-0.9-2.1-0.5-4.6,1.2-7.3c0.7-1.2,1.4-2.3,2.1-3.3
					c4.4-7,5.9-9.3,4.7-14.8l0.5-0.1c1.2,5.7-0.4,8.3-4.8,15.2c-0.6,1-1.3,2.1-2.1,3.3c-1.6,2.6-2,4.9-1.2,6.9
					c1.6,3.8,7.1,5.2,7.2,5.2L2236.9,820.7z"/>
			</g>
			<g>
				<path class="st14" d="M2237.6,789.7c0,0,1.9,8.8-3.9,18c-5.8,9.2,0.5,15.9,8.4,12.4c7.9-3.5,10.9,6.5,20.9,1
					C2273.1,815.4,2237.6,789.7,2237.6,789.7z"/>
			</g>
			<g>
				<path class="st19" d="M2284.1,828.5c-4.3-0.5-8.1-3.2-9.9-7.2l-5.4-12.6l-1.6-3.7l-9.2-21.5l1.6,22.3l1,13.4l0.3,3.8
					c0.2,3.1-1.9,5.9-5,6.4l-0.1,0c-1.6,2.7-3.9,8.1,2.9,10.3C2266.7,842.2,2279.6,835.9,2284.1,828.5
					C2284.2,828.5,2284.2,828.5,2284.1,828.5z"/>
			</g>
			<g>
				<path class="st12" d="M2268.9,808.3c0,0.1,0,0.2,0,0.4c-0.5,7.2-8.2,10.5-8.2,10.5l0,0l-1-13.4c2.3-0.9,5.7-1.7,7.6-0.8
					C2268.3,805.5,2268.9,806.5,2268.9,808.3z"/>
			</g>
			<g>
				<ellipse class="st19" cx="2257" cy="787.1" rx="20.9" ry="25.8"/>
			</g>
			<g>
				<path class="st19" d="M2275.1,791c-2.4,2.3-5.7,2.5-7.4,0.5c-1.7-2-1.2-5.4,1.2-7.7c2.4-2.3,5.7-2.5,7.4-0.5
					C2278,785.3,2277.5,788.7,2275.1,791z"/>
			</g>
			<g>
				<path class="st20" d="M2245.8,803.8c0,0,7.1,0.2,14.3-2.3c0,0,0.6,7-7.1,7.5C2248.4,809.2,2245.8,803.8,2245.8,803.8z"/>
			</g>
			<g>
				<path class="st21" d="M2245.8,803.8c0,0,1.7,1.4,5.8,1.4c4,0,8.5-3.8,8.5-3.8S2251.4,803.8,2245.8,803.8z"/>
			</g>
			<g>
				<g>
					<path class="st22" d="M2255,787.3c-0.1,0-0.3-0.1-0.3-0.3c-0.1-0.2,0-0.5,0.3-0.6c0.1-0.1,3.3-1.7,6.2,1.4
						c0.2,0.2,0.2,0.5,0,0.7c-0.2,0.2-0.5,0.1-0.7,0c-2.2-1.5-5-1.2-5.1-1.1C2255.2,787.4,2255.1,787.4,2255,787.3z"/>
				</g>
			</g>
			<g>
				<path class="st22" d="M2258.8,792.6c0,1.1-0.6,2.1-1.4,2.1c-0.8,0-1.5-0.9-1.6-2c0-1.1,0.6-2.1,1.4-2.1
					C2258,790.5,2258.7,791.4,2258.8,792.6z"/>
			</g>
			<g>
				<g>
					<path class="st22" d="M2238,789.8c-0.1,0-0.3,0-0.4-0.1c-0.2-0.2-0.2-0.5,0-0.7c0.1-0.1,2.4-2.9,6.2-1.1
						c0.2,0.1,0.3,0.4,0.2,0.6c-0.1,0.2-0.4,0.3-0.6,0.2c-2.6-0.5-5.1,0.8-5.2,0.9C2238.2,789.8,2238.1,789.8,2238,789.8z"/>
				</g>
			</g>
			<g>
				<path class="st22" d="M2243.5,793.2c0.5,1,0.2,2.1-0.5,2.5c-0.8,0.3-1.7-0.2-2.2-1.3c-0.5-1-0.2-2.1,0.5-2.5
					C2242,791.6,2243,792.2,2243.5,793.2z"/>
			</g>
			<g>
				<path class="st14" d="M2248.1,766c0,0,0.5,9,11.6,10.5c11.2,1.5,18.9,6.3,17.4,14.3c-1.5,8.1-19.5,24.8-6.3,31.2
					s10.4-5.6,24.8-2.8c14.4,2.8,17-16.4,7.1-27.5c-9.9-11.1-5.9-40.6-43-39.3c-37.1,1.3-23.5,30.9-23.5,30.9
					S2248.2,775.8,2248.1,766z"/>
			</g>
			<g>
				<path class="st21" d="M2274.7,823.7c-2.8-1.1-4.5-2.8-5.1-5c-1.6-6,5.4-15.1,11.5-23.1c1.6-2.1,3.2-4.1,4.5-6
					c3.8-5.3,4.1-11.3,0.9-16.2c-3.5-5.3-10.3-7.6-17.6-5.9c-7.3,1.7-12.3,0.2-15.2-1.4c-3.2-1.7-4.6-3.8-4.7-3.9l0.3-0.2
					c0.1,0.1,5.8,8.4,19.6,5.2c7.4-1.7,14.3,0.6,17.9,6c3.3,4.9,2.9,11.2-0.9,16.5c-1.4,1.9-2.9,3.9-4.5,6
					c-6.1,7.9-13.1,17-11.5,22.8c0.6,2.1,2.2,3.7,4.9,4.8L2274.7,823.7z"/>
			</g>
			<g>
				<g>
					<path class="st11" d="M2237.2,806.3c-3.1-1.2-5.9-4.6-7.4-9.3c-2.4-7.6-0.7-16,3.8-18.8c1.7-1.1,3.6-1.2,5.4-0.5
						c3.1,1.2,5.9,4.6,7.4,9.3l0,0c2.4,7.6,0.7,16-3.8,18.8c-1,0.6-2.1,0.9-3.2,0.9C2238.7,806.7,2238,806.6,2237.2,806.3z
						 M2245.6,787.3c-1.4-4.4-3.9-7.6-6.8-8.7c-1.6-0.6-3.2-0.4-4.6,0.4c-4.2,2.6-5.7,10.5-3.4,17.7c1.4,4.4,3.9,7.6,6.8,8.7
						c1.6,0.6,3.2,0.4,4.6-0.4C2246.3,802.4,2247.9,794.5,2245.6,787.3L2245.6,787.3z"/>
				</g>
			</g>
			<g class="st23">
				<path class="st21" d="M2270.7,782c1.7,7.4-1,15.3-6,17.7c-5,2.4-10.4-1.6-12.1-9c-1.7-7.4,1-15.3,6-17.7
					C2263.6,770.6,2269,774.7,2270.7,782z"/>
			</g>
			<g class="st23">
				<path class="st21" d="M2246.7,787.6c1.7,7.4-0.6,15.4-5,17.9c-4.4,2.5-9.4-1.5-11.1-8.9c-1.7-7.4,0.6-15.4,5-17.9
					C2240,776.2,2245,780.2,2246.7,787.6z"/>
			</g>
			<g>
				<g>
					<path class="st11" d="M2257.7,799.8c-3.2-1.6-5.7-5.1-6.7-9.7c-1.8-7.9,1.2-16.4,6.6-19c2.2-1,4.6-1,6.8,0.1
						c3.2,1.6,5.7,5.1,6.7,9.7l0,0c1.8,7.9-1.1,16.4-6.6,19c-1.1,0.5-2.2,0.8-3.3,0.8C2260,800.6,2258.8,800.4,2257.7,799.8z
						 M2258,772c-5.1,2.4-7.9,10.4-6.1,17.9c1,4.3,3.3,7.6,6.2,9.1c2,0.9,4,0.9,6,0c5.1-2.4,7.9-10.4,6.1-17.9l0,0
						c-1-4.2-3.3-7.6-6.2-9c-1-0.5-2-0.7-3.1-0.7C2260,771.4,2259,771.6,2258,772z"/>
				</g>
			</g>
			<g>
				<g>
					<path class="st11" d="M2245.7,790.3c0.2,0,0.4-0.1,0.6-0.2l0,0c0.1-0.1,2.3-1.8,6.2-1.1c0.5,0.1,0.9-0.2,1-0.7
						c0.1-0.5-0.2-0.9-0.7-1c-4.7-1-7.6,1.4-7.7,1.5c-0.4,0.3-0.4,0.9-0.1,1.2C2245.2,790.2,2245.4,790.3,2245.7,790.3z"/>
				</g>
			</g>
		</g>
		<g>
			<path class="st12" d="M2354.1,859.9c1.1,3.1-7,9-18.1,13c-11.1,4.1-20.9,4.9-22,1.7c-1.1-3.1,7-9,18.1-13
				C2343.2,857.6,2353.1,856.8,2354.1,859.9z"/>
		</g>
		<g>
			<g>
				<path class="st19" d="M2268.6,960.7l9.1-15.4c-0.1-3.1-5.1-8.8-2.2-7.8c11.4,3.8,34.3-4.1,40.3-12.6c8.4-11.8,7.5-30.2,5.1-42.9
					c-1.2-6.5,1-10.9,8.8-15.1c0,0,6.8-3.7,15.1-5.1c3.3-0.6,6.7,0.8,7.5,4.1c1.4,5.1,3.1,13.1,3.9,22.5c2,22.3-2.3,41.8-12.5,56.2
					c-12.4,17.7-35.6,29-72.1,25.8C2268.6,970,2268.7,964,2268.6,960.7z"/>
			</g>
		</g>
		<g class="st6">
			<path class="st24" d="M2335.8,938.5c-1.1,0-2.1-0.3-2.9-1c-2.5-2-2.2-6.4,0.6-9.9c2.8-3.5,7.1-4.7,9.6-2.7c1.2,1,1.8,2.6,1.7,4.5
				c-0.1,1.8-1,3.7-2.3,5.4l0,0C2340.6,937.2,2338.1,938.5,2335.8,938.5z M2340.2,925.5c-1.8,0-3.9,1.1-5.5,3.1
				c-2.2,2.8-2.6,6.3-0.8,7.8c1.8,1.4,5.2,0.3,7.4-2.5l0,0c1.1-1.4,1.8-3,1.9-4.5c0.1-1.4-0.3-2.6-1.1-3.2
				C2341.6,925.7,2341,925.5,2340.2,925.5z"/>
		</g>
		<g>
			<path class="st13" d="M2302.6,1025.2c0,0-86.3-16.5-114.2-8.7l13.4,19.9l49.9,2.8L2302.6,1025.2z"/>
		</g>
		<g>
			<path class="st11" d="M2257.6,986.9H2184c-3.2,0-5.9-2.2-6.6-5.3l-21.9-98.5c-0.9-4,2.2-7.9,6.3-7.9h70.2c3.6,0,6.7,2.5,7.5,6
				l22.3,100.4C2262.4,984.3,2260.3,986.9,2257.6,986.9z"/>
		</g>
		<g>
			<g>
				<g>
					<path class="st19" d="M2278.2,940c0,0-18.8-19.2-29.1-19.3c-10.3-0.2-23.6,7.4-17.2,8.8c6.4,1.5,15,1.1,15,1.1
						s-18.4,1.7-16.2,5.8c2.3,4.1,18.2,2.5,18.2,2.5s-21.7,3.7-18.3,6.9c3.4,3.2,19.9,0.3,19.9,0.3s-20.1,4.3-16.1,7.9
						c4,3.6,16.6-3.6,18.8,0.5c2.3,4.1,12.6,19.8,24.9,14.9V940z"/>
				</g>
			</g>
			<g>
				<path class="st25" d="M2254.2,931.7c-2.2-2-7.2-0.8-7.2-0.8l-0.2-0.7c0.2-0.1,5.4-1.3,7.9,1L2254.2,931.7z"/>
			</g>
			<g>
				<path class="st25" d="M2257.9,940.3c-3.8-2.3-8.7-1-8.7-1l-0.2-0.7c0.2-0.1,5.2-1.3,9.3,1.1L2257.9,940.3z"/>
			</g>
			<g>
				<path class="st25" d="M2258.8,947.4c-2.2-2.3-8-0.9-8.1-0.9l-0.2-0.7c0.3-0.1,6.4-1.5,8.8,1.1L2258.8,947.4z"/>
			</g>
		</g>
		<g>
			<g>
				<g>
					<path class="st19" d="M2156,925.3c0,0-1,8.9,7.1,9.8c10.4,1.1,33.6-10.1,6.9-10.6c-0.7,0,17-1.3,14.9-5.5
						c-2.1-4.3-17.4-2.3-17.4-2.3s18.6-2.8,15.3-6.2c-3.3-3.4-15.3-3-15.3-3s15.7-1.6,11.8-5.5c-3.9-3.9-14.2,0.1-18.9,0.8
						c-4.5,0.6-5.5,3.7-4.6,8c0,0-1.5,4.8-0.2,7.4c0.5,1-0.4,2.2-0.3,3C2155.3,922.6,2156,925.3,2156,925.3z"/>
				</g>
			</g>
		</g>
		<g>
			<path class="st14" d="M2212.2,878c0,0-2.8-6.3-3.6-7c-0.8-0.7-33.9-0.4-33.7,1.1s1.5,6.1,4.6,7S2213.5,880.8,2212.2,878z"/>
		</g>
	</g>
	<g>
		<path class="st12" d="M2211.1,1340.8H666.6c-4.9,0-7.8-3.6-8.4-7.1c-0.7-3.6,0.7-8,5.4-9.8l150.1-57.9c5.3-2,10.9-3.1,16.5-3.1
			h1234.6c5.5,0,10.9,1.1,16,3.4l133.5,58.9c4.1,1.8,5.3,5.9,4.6,9.2C2218.2,1337.5,2215.6,1340.8,2211.1,1340.8z M830.1,1264.3
			c-5.5,0-10.9,1-16,3L664,1325.2c-3.9,1.5-5.1,5.2-4.5,8.3c0.5,2.8,2.7,6,7.1,6h1544.5c4,0,6-2.9,6.5-5.3c0.5-2.5-0.2-6-3.9-7.6
			l-133.5-58.9c-4.9-2.2-10.1-3.3-15.5-3.3H830.1z"/>
	</g>
	<g>
		<g>
			<g>
				<path class="st19" d="M1480.8,836.3l-1.7,0.8c-1.6,0.8-3.5,0.1-4.3-1.5l-7.8-16.4c-0.8-1.6-0.1-3.5,1.5-4.2l1.7-0.8
					c1.6-0.8,3.5-0.1,4.3,1.5l7.8,16.4C1483,833.7,1482.4,835.6,1480.8,836.3z"/>
			</g>
			<g>
				<path class="st19" d="M1487.3,831.7l-1.8,0.9c-1.6,0.7-3.4,0.1-4.2-1.5l-8.3-17.5c-0.7-1.6-0.1-3.4,1.5-4.2l1.8-0.9
					c1.6-0.7,3.4-0.1,4.2,1.5l8.3,17.5C1489.5,829.1,1488.8,830.9,1487.3,831.7z"/>
			</g>
			<g>
				<path class="st19" d="M1496.5,846.7l-1.2-0.3c-2.2-0.5-3.6-2.7-3.1-4.9l5-21.5c0.5-2.2,3.4-5.6,5.6-5c3.6,0.9,4.1,5,3.6,7.2
					l-5,21.5C1500.9,845.9,1498.7,847.2,1496.5,846.7z"/>
			</g>
			<g>
				<path class="st19" d="M1494.5,828.9l-0.7,0.3c-1.9,0.9-4.3,0.1-5.2-1.8l-11.8-24.7c-0.9-1.9-2.3-6.5,1.3-7.8
					c2.6-1,5.2,3.6,6.7,6.6c3,5.9,11.4,22.3,11.4,22.3C1497.3,825.7,1496.5,828,1494.5,828.9z"/>
			</g>
			<g>
				<path class="st19" d="M1480.9,853.7c0,0-16.9-14.8-17.8-28.6c-0.3-4.8,21-14.8,25.2-11.5c4.2,3.3,13.2,23.5,13.2,23.5
					L1480.9,853.7z"/>
			</g>
			<g>
				<path class="st19" d="M1473.6,838.9l-1.8,0.8c-1.6,0.7-0.3,3.8-1.4,2.4c-7.4-9.3-9.5-18-9.5-18c-0.7-1.6-0.1-4.4,1.5-5.1
					l1.6-0.5c1.6-0.7,3.6,0.5,4.4,2.1l6.7,14.1C1475.9,836.2,1475.2,838.1,1473.6,838.9z"/>
			</g>
		</g>
		<g>
			<path class="st12" d="M1600,1297.6c0,0-0.6,11.4-8.4,14.5s-30.4,5.3-22.2,12.9c4.7,4.3,27.5,2.2,33.9,2.4
				c6.4,0.2,12.4,3.1,17.2-1c5.4-4.6,0.8-28.2,0.8-28.2s-5.6,2.7-10.6,2.5C1603.5,1300.2,1600,1297.6,1600,1297.6z"/>
		</g>
		<g>
			<path class="st17" d="M1543.8,1009.4c1.5,23.7,4.3,54.5,9.6,92.2c10,71.8,22.1,144.2,28.1,179c2.1,12.4,12.3,21.7,24.6,22.6
				l6.6,0.4c13.3,0.9,23.4-4,23.4-25.2l-0.6-193l-10.4-77.1C1625.1,1008.3,1541.3,970.5,1543.8,1009.4z"/>
		</g>
		<g>
			<path class="st12" d="M1673.5,1299.6c0,0-0.6,11.4-8.4,14.5c-7.8,3-30.4,5.3-22.2,12.9c4.7,4.3,27.5,2.2,33.9,2.4
				c6.4,0.2,12.4,3.1,17.2-1c5.4-4.6,0.8-28.2,0.8-28.2s-5.6,2.7-10.6,2.5C1677,1302.2,1673.5,1299.6,1673.5,1299.6z"/>
		</g>
		<g>
			<path class="st17" d="M1615.9,952.5c0,0-2.9,51.6,10.9,151.1c10,71.8,22.1,144.2,28.1,179c2.1,12.4,12.3,21.7,24.6,22.6l6.6,0.4
				c13.3,0.9,24.5-10.3,23.9-23.9l-10.4-234.1l-2-77L1615.9,952.5z"/>
		</g>
		<g>
			<path class="st12" d="M1635.7,1167.9c0-3.5-1-86.8,3.3-102.1c4.3-15.3,23.5-28.1,24.3-28.7l0.6,0.8c-0.2,0.1-19.7,13.2-23.9,28.1
				c-4.2,15.1-3.3,100.9-3.3,101.8L1635.7,1167.9z"/>
		</g>
		<g>
			<path class="st19" d="M1630.3,793.9l-5.2-15.4l-1.5-4.5l-8.8-26.4l-1.2,26.3l-0.7,15.8l-0.2,5c-0.1,3.4-2.4,4.1-5.1,7
				c-1.1,1.2-8.1,8.4-0.1,11.7c9.9,4.1,28.5-2.1,35.6-10.2C1643.1,803.2,1632,798.9,1630.3,793.9z"/>
		</g>
		<g>
			
				<ellipse transform="matrix(0.2149 -0.9766 0.9766 0.2149 529.127 2173.093)" class="st19" cx="1616.2" cy="757.4" rx="28.4" ry="25.3"/>
		</g>
		<g>
			<path class="st12" d="M1601.9,747.6c-14.5,0.5-21.5-7.2-21.7-14.4c-0.2-9.2,6-17.3,13.3-13.9c7.3,3.4,4.2-5,11.1-5.9
				c13.1-1.7,15.5,7,26.2,7.4c14.1,0.6,30.2,22.3,18.4,38.3C1649.3,759,1613.3,747.2,1601.9,747.6z"/>
		</g>
		<g>
			<path class="st12" d="M1589,738.3c0,0,15.5,13.8,13.4,21.6c-2,7.8-1.5,10.8,7.5,15c9,4.1,1.1,10.9,13.1,11.4
				c12,0.5,26.8-12.7,26.8-34.4c0-12.1-7.5-20-7.5-20L1589,738.3z"/>
		</g>
		<g>
			<path class="st19" d="M1594.6,759.5c1.8-2.3,5-3,7.2-1.5c2.2,1.5,2.6,4.5,0.9,6.8c-1.8,2.3-5,3-7.2,1.5
				S1592.9,761.9,1594.6,759.5z"/>
		</g>
		<g>
			<path class="st12" d="M1655.1,765c-0.2,0-0.3-0.1-0.3-0.3c-0.7-2.9-3.7-4.6-3.7-4.6c-0.2-0.1-0.2-0.3-0.1-0.5
				c0.1-0.2,0.3-0.2,0.5-0.1c0.1,0.1,3.3,1.8,4.1,5.1C1655.5,764.7,1655.4,764.9,1655.1,765C1655.2,765,1655.1,765,1655.1,765z"/>
		</g>
		<g>
			<path class="st12" d="M1651.2,758.5c-0.2,0-0.3-0.1-0.4-0.3c0-0.2,0.1-0.4,0.3-0.4c0,0,4-0.3,4.5-3.1c0-0.2,0.2-0.3,0.4-0.3
				c0.2,0,0.3,0.2,0.3,0.4C1655.7,758.2,1651.4,758.5,1651.2,758.5C1651.2,758.5,1651.2,758.5,1651.2,758.5z"/>
		</g>
		<g>
			<path class="st12" d="M1595.7,718.7c-0.3,0-0.5,0-0.8-0.1c-1.2-0.3-2.1-0.9-3-1.5c-1.6-1-3-1.9-6-1c-0.2,0.1-0.4-0.1-0.4-0.2
				c-0.1-0.2,0.1-0.4,0.2-0.4c3.3-1,5,0.1,6.6,1.1c0.8,0.5,1.7,1.1,2.8,1.4c0.6,0.2,1.1,0.1,1.6-0.2c1.6-1.1,2-4.5,2-4.5
				c0-0.2,0.2-0.3,0.4-0.3c0.2,0,0.3,0.2,0.3,0.4c0,0.2-0.4,3.8-2.3,5.1C1596.7,718.6,1596.2,718.7,1595.7,718.7z"/>
		</g>
		<g>
			<path class="st12" d="M1629.8,719.6c-5.1,0-9.1-3.4-9.3-3.6c-0.1-0.1-0.2-0.4,0-0.5c0.1-0.1,0.4-0.2,0.5,0c0,0,4.8,4.1,10.3,3.3
				c0.2,0,0.4,0.1,0.4,0.3c0,0.2-0.1,0.4-0.3,0.4C1630.9,719.6,1630.3,719.6,1629.8,719.6z"/>
		</g>
		<g>
			<path class="st12" d="M1598.5,767.4c-0.6,0-1-0.1-1-0.1c-0.1,0-0.1-0.1-0.1-0.2c0-0.1,0.1-0.1,0.2-0.1c0.1,0,3.3,1,5.5-3.1
				c0-0.1,0.2-0.1,0.2-0.1c0.1,0,0.1,0.2,0.1,0.2C1601.8,766.9,1599.7,767.4,1598.5,767.4z"/>
		</g>
		<g>
			<path class="st12" d="M1543.8,1009.4c0,0,105.1-5.7,154.9,6.3l0.7-14.2l-69.9-20.7l-56.4,1.4l-17.3,3.7l-12.2,18.9L1543.8,1009.4
				z"/>
		</g>
		<g>
			<path class="st14" d="M1689.4,836.6c0,0-9.2-39.7-65.8-39.7c-98.6,0-70.9,80.3-80,207.8c0,0,63.6-13.7,155.5,4.5
				c0,0,9-69.1-2.6-127.5C1693.3,866.4,1693.9,850,1689.4,836.6z"/>
		</g>
		<g>
			<path class="st14" d="M1612.2,796.9c0,0-31.6,0.5-55.1,22.6s-53.8,52.7-60.2,70.2c-7.9,21.6,6.7,43.3,25.1,43.8
				c18.5,0.5,35.1-12.9,35.1-12.9L1612.2,796.9z"/>
		</g>
		<g>
			<path class="st14" d="M1752.2,913.7c-9.2-68.3-87.2-106.9-87.2-106.9l-16.6,85.7l32.5,10.3c16.7,5.3,23.5,25.3,13.4,39.5
				c-12.9,18.2-20.5,42.6-7.1,38.1C1710,972.7,1756.9,943.7,1752.2,913.7z"/>
		</g>
		<g>
			<path class="st12" d="M1701.9,978.2l-0.7,0c2.7-50-6.1-101.3-6.2-101.8l0.7-0.1C1695.8,876.7,1704.7,928,1701.9,978.2z"/>
		</g>
		<g>
			<path class="st12" d="M1546.1,927.8l-0.4-0.6c18.6-10.9,42.8-39.8,43-40.1l0.5,0.4C1589,887.9,1564.8,916.8,1546.1,927.8z"/>
		</g>
		<g>
			<path class="st14" d="M1537.7,857.8c0,0-23.9-24.9-32.2-26.6c-8.4-1.7-56.5,11.6-3.7,91.6L1537.7,857.8z"/>
		</g>
	</g>
	<g>
		<g>
			<path class="st19" d="M864.5,1099c3.1,5.5,34.2,53.7,27.7,100.9l-33.9-12.3l-15.5-63.6L864.5,1099z"/>
		</g>
		<g>
			<path class="st7" d="M729.2,1079.3c0,0,20.8-37.3,71.5-27c50.7,10.3,78.3,82.8,64.6,226.5c0,0-80.5-32-185.2-6.2
				C680.1,1272.5,697.3,1133.4,729.2,1079.3z"/>
		</g>
		<g>
			<path class="st7" d="M690.6,1064.2l35.6,35.6c0,0,91.3,24.7,116.7,24.4c25.4-0.3,35.3-18.8,35.3-18.8s-21.4-33.9-64.7-49.2
				c-4.1-1.4-8.3-2.7-12.8-3.8c-7.5-1.8-15.1-2.8-22.6-3.3C733.2,1046.3,690.6,1064.2,690.6,1064.2z"/>
		</g>
		<g>
			<path class="st12" d="M690.6,1064.2c-5.7,6.2,3.1,12.9,12.9,22.8c9.8,9.8,20,15.5,22.7,12.8c2.7-2.8-3.1-12.9-12.9-22.8
				C703.4,1067.1,693.2,1061.3,690.6,1064.2z"/>
		</g>
		<g>
			<path class="st19" d="M721.4,1099.9c0,0,0.5-7.1-8.4-16.2c-5.4-5.5-12.2-9-16.7-11c-2.7-1.2-5.8,0.1-6.9,2.9l-2.9,7.4l13.3,8.6
				L721.4,1099.9z"/>
		</g>
		<g>
			<path class="st14" d="M784.4,1231.6c0,0-109.9-59.5-149.3,5.4c-29.2,48.1,14.7,92.9,177.2,88.3c0,0,16.1-7.5,12.2-46.6
				C822.9,1263.3,784.4,1231.6,784.4,1231.6z"/>
		</g>
		<g>
			<path class="st14" d="M784.4,1231.6c0,0,146.3-59.9,175.3-22.5c33.3,43.1,1.4,116.2-152.9,90.1l-18.8-20.4L784.4,1231.6z"/>
		</g>
		<g>
			<path class="st18" d="M812.5,1325.5l-0.4-0.5c17.1-12.2,12.5-43.4,12.1-46.1l-110.9-40.4l0.2-0.6l111.3,40.5l0,0.2
				C824.9,1279,830.6,1312.7,812.5,1325.5z"/>
		</g>
		<g>
			<path class="st12" d="M825.4,1289.5c0,0,27,1.1,39.6,7.3c12.7,6.2,5.9,21.4-19.8,21c-25.7-0.4-23.8-4.2-23.8-4.2
				S826.4,1300.2,825.4,1289.5z"/>
		</g>
		<g>
			<g>
				<path class="st19" d="M790.9,1234.4c8.9,0,16.3-2.3,22.2-6.7c11.2-8.5,13.3-22,11.7-31l-10.7-6.3c-0.5-2.9-21.3,8-21.2,8
					c-0.1,0-9.9,2.9-43.9-14.5c-23.7-12.1-35.6-29.3-36.5-52.5c-0.7-17.5,7.1-27.3,9-31.6c0.2-0.6-11.4-12.3-11.1-13.5l-8.8-4.5
					c0.3-1-8.4-4.4-8.3-4.7l-6.8,5.8c-3.3,7.7-10.4,25.4-9.5,49.8c1,25.4,11.4,60.4,55.9,83.1
					C757.2,1228.3,776.2,1234.4,790.9,1234.4z"/>
			</g>
		</g>
		<g>
			<g>
				<path class="st11" d="M798.1,1235.8h94.8c2,0,3.7-1.3,4.4-3.1l19.7-58.9c1-3-1.2-6-4.4-6h-91.2c-4.2,0-7.8,2.6-9.2,6.6
					l-18.6,55.4C792.7,1232.8,795,1235.8,798.1,1235.8z"/>
			</g>
			<g>
				<path class="st11" d="M804.1,1235.8h94.8c2,0,3.7-1.3,4.4-3.1l19.7-58.9c1-3-1.2-6-4.4-6h-91.2c-4.2,0-7.8,2.6-9.2,6.6
					l-18.6,55.4C798.7,1232.8,800.9,1235.8,804.1,1235.8z"/>
			</g>
			<g>
				<path class="st16" d="M870.5,1199.9c0-2.2-2.6-3.1-4.8-3.1s-5.9,2.5-5.9,5.6c0,3.4,2.7,3.8,4.9,3.8
					C866.9,1206.2,870.5,1202.8,870.5,1199.9z"/>
			</g>
			<g>
				<path class="st11" d="M769.2,1227.5h129.7v8.3H766.5c-1.5,0-2.8-1.3-2.8-2.8l0,0C763.7,1230,766.2,1227.5,769.2,1227.5z"/>
			</g>
			<g>
				<path class="st12" d="M810.5,1198c0,0-0.1,0-0.1,0c-0.3-0.1-0.4-0.3-0.3-0.6c0.2-0.7,4.7-17.7,7.8-23.2c3.1-5.6,7-6.7,7.1-6.8
					c0.3-0.1,0.5,0.1,0.6,0.3c0.1,0.3-0.1,0.5-0.3,0.6c0,0-3.6,1.1-6.6,6.3c-3,5.4-7.6,22.8-7.7,23
					C810.9,1197.8,810.7,1198,810.5,1198z"/>
			</g>
			<g>
				<path class="st12" d="M796.8,1228c-0.3,0-0.5-0.2-0.5-0.5c0-0.3,0.2-0.5,0.5-0.5c3,0,3.7-1.2,3.7-1.2l7.4-22
					c0.1-0.2,0.4-0.4,0.6-0.3c0.2,0.1,0.4,0.4,0.3,0.6l-7.4,22.1C801.3,1226.4,800.4,1228,796.8,1228z"/>
			</g>
		</g>
		<g>
			<path class="st24" d="M705.6,1183.4c-0.3,0-0.7,0-1.1-0.1c-2-0.5-4.3-2.6-5.9-5.3c-2.4-4.2-2.5-8.6-0.1-9.9
				c0.7-0.4,1.6-0.5,2.6-0.3c2,0.5,4.3,2.6,5.9,5.3c2.4,4.2,2.5,8.6,0.1,9.9C706.7,1183.3,706.2,1183.4,705.6,1183.4z M700.1,1168.9
				c-0.3,0-0.6,0.1-0.9,0.2c-1.7,1-1.4,4.7,0.6,8.2c1.4,2.4,3.4,4.3,5.1,4.8c0.7,0.2,1.2,0.1,1.6-0.1c1.7-1,1.4-4.7-0.6-8.2
				c-1.4-2.4-3.4-4.3-5.1-4.8C700.6,1168.9,700.3,1168.9,700.1,1168.9z"/>
		</g>
		<g>
			<path class="st19" d="M777.3,1048.9c6.2-0.2,11-0.8,14.5-5l11.1-13l3.2-3.8l19-22.3l-10,26.1l-6,15.7l-1.9,5
				c-1.3,3.4,0.4,4.9,1.6,8.9c0.5,1.6,3.8,11.4-4.8,11.5c-10.6,0.1-24-12.3-27-22.9C777.2,1048.9,777.2,1048.9,777.3,1048.9z"/>
		</g>
		<g>
			<path class="st12" d="M799.8,1022.4c0,0-20.9-20.1-8.8-37c12.1-17,15.1,27.2,15.1,27.2l-3.4,10.2L799.8,1022.4z"/>
		</g>
		<g>
			<path class="st12" d="M803,1030.3c0,0.1-0.1,0.3-0.1,0.5c-1.9,8.8,6.2,15.7,6.2,15.7l0.1,0l6-15.7c-2.5-1.9-6.3-4.2-9-3.8
				C804.7,1027.2,803.6,1028.2,803,1030.3z"/>
		</g>
		<g>
			
				<ellipse transform="matrix(0.2768 -0.9609 0.9609 0.2768 -376.8424 1523.8645)" class="st19" cx="823.9" cy="1012.3" rx="29.7" ry="24.4"/>
		</g>
		<g>
			<path class="st12" d="M805,1002.9c0,0,6.7,4.8,12.2,0.8c5.6-4.1,9.5-8,22-1.7c12.5,6.3,26.2,3.5,28.7-3.6
				c2.5-7.1-3.4-12.5-11.3-12.2c-7.8,0.4,1.7-4-3.8-11.4c-5.5-7.4-19.3,0.2-26.2-3.5c-6.9-3.7-31.3-6.9-35.7,14.1L805,1002.9z"/>
		</g>
		<g>
			<path class="st19" d="M799.8,1007.1c1.6,2.5,4.7,3.3,6.9,1.9c2.2-1.4,2.7-4.6,1.1-7.1c-1.6-2.5-4.7-3.3-6.9-1.9
				C798.6,1001.4,798.2,1004.6,799.8,1007.1z"/>
		</g>
		<g>
			<path class="st21" d="M854.1,995.9c-5.2,0-12.4-6.4-12.7-6.7l0.6-0.7c0.1,0.1,8.4,7.5,13.2,6.3c1.8-0.5,2.9-1.3,2.7-2.3
				c-0.2-0.9-1.5-1.7-3.3-1.6c-4.1,0.4-6.3-1-6.4-1l0.5-0.8c0,0,2.1,1.3,5.8,0.9c2.5-0.3,4.1,1,4.3,2.3c0.2,1.1-0.6,2.6-3.4,3.3
				C855.1,995.8,854.6,995.9,854.1,995.9z"/>
		</g>
		<g>
			<path class="st21" d="M832.6,978.3c-1.7,0-3.5-0.3-5.2-0.9c-2.2-0.9-4.1-1.9-5.9-2.8c-3.5-1.9-6.6-3.5-9.9-2.8l-0.2-0.9
				c3.6-0.7,6.8,1,10.5,2.9c1.8,1,3.7,1.9,5.8,2.8c6.4,2.5,13.8-1.1,14.3-1.5l0.7,0.6C842.2,976.1,837.6,978.3,832.6,978.3z"/>
		</g>
		<g>
			<path class="st21" d="M797.3,984.3c-0.1,0-0.3,0-0.4-0.1c-0.3-0.1-0.8-0.5-0.5-1.6l0.1-0.1c0.5-0.7,3.2-4.3,5-3.2
				c0.2,0.1,0.7,0.6,0.2,1.6C801.2,982.1,798.7,984.3,797.3,984.3z M797.3,982.9c-0.1,0.3,0,0.5,0,0.5c0.2,0.1,1.6-0.5,2.8-1.8
				c0.9-0.9,1-1.4,0.9-1.5C800.2,979.6,798.4,981.5,797.3,982.9z"/>
		</g>
		<g>
			<g>
				<path class="st22" d="M828.6,1013.1c0.1,0,0.3-0.1,0.4-0.3c0.1-0.2,0-0.5-0.2-0.7c-0.1-0.1-3.2-2.2-6.5,0.6
					c-0.2,0.2-0.2,0.5-0.1,0.7c0.2,0.2,0.5,0.2,0.7,0.1c2.4-1.2,5.3-0.6,5.4-0.5C828.4,1013.1,828.5,1013.1,828.6,1013.1z"/>
			</g>
		</g>
		<g>
			<path class="st22" d="M824,1018c-0.2,1.2,0.3,2.2,1.2,2.4c0.8,0.1,1.7-0.7,1.9-1.9c0.2-1.2-0.3-2.2-1.2-2.4
				C825.1,1016,824.2,1016.8,824,1018z"/>
		</g>
		<g>
			<g>
				<path class="st22" d="M845.9,1019.3c0.1,0,0.2,0,0.3-0.1c0.2-0.2,0.2-0.5,0.1-0.7c-0.1-0.1-1.5-3.1-4.8-1.6
					c-0.2,0.1-0.3,0.4-0.3,0.6c0,0.3,0.3,0.3,0.5,0.3c2.2-0.4,4,1.2,4,1.3C845.7,1019.2,845.8,1019.3,845.9,1019.3z"/>
			</g>
		</g>
		<g>
			<path class="st22" d="M839.7,1022.1c-0.6,1-0.5,2.2,0.2,2.7c0.7,0.5,1.8,0,2.4-1c0.6-1,0.5-2.2-0.2-2.7
				C841.4,1020.6,840.3,1021.1,839.7,1022.1z"/>
		</g>
		<g>
			<g>
				<path class="st18" d="M825.5,1034.6c-3,0-7.5-0.9-10.1-5.6c-0.1-0.2,0-0.4,0.1-0.5c0.2-0.1,0.4,0,0.5,0.1c4,7,12,5,12.3,4.9
					c0.2,0,0.4,0.1,0.4,0.3c0,0.2-0.1,0.4-0.2,0.4C828.5,1034.3,827.3,1034.6,825.5,1034.6z"/>
			</g>
			<g>
				<path class="st18" d="M814.7,1030.3c0,0-0.1,0-0.1,0c-0.2-0.1-0.3-0.3-0.2-0.4c0.3-0.9,1.1-1.7,2.3-2.4c0.2-0.1,0.4-0.1,0.5,0.1
					c0.1,0.2,0.1,0.3-0.1,0.4l-0.1,0.1c-1.3,0.8-1.8,1.5-2,2C815,1030.2,814.8,1030.3,814.7,1030.3z"/>
			</g>
		</g>
		<g>
			
				<rect x="855.2" y="1103.7" transform="matrix(0.9499 -0.3125 0.3125 0.9499 -304.8245 323.2124)" class="st12" width="1.5" height="17.9"/>
		</g>
		<g>
			<path class="st21" d="M842.5,1038.9c-1.8,0-3.4-0.7-4.7-2c-4.2-4.1-4-13.7,0.4-21.3c2.7-4.7,6.5-7.8,10.2-8.3
				c2.2-0.3,4.2,0.4,5.7,1.9c4.2,4.1,4,13.7-0.4,21.3c-2.7,4.7-6.5,7.8-10.2,8.3C843.1,1038.9,842.8,1038.9,842.5,1038.9z
				 M849.4,1008.3c-0.3,0-0.6,0-0.9,0.1c-3.4,0.4-6.9,3.4-9.4,7.8l0,0c-4.2,7.3-4.5,16.3-0.6,20.1c1.3,1.3,3,1.8,4.8,1.6
				c3.4-0.4,6.9-3.4,9.4-7.8c4.2-7.3,4.5-16.3,0.6-20.1C852.3,1008.9,850.9,1008.3,849.4,1008.3z"/>
		</g>
		<g class="st23">
			<path class="st21" d="M813.4,1004.4c-3.6,7.6-2.6,16.8,2.2,20.6c4.8,3.8,11.6,0.7,15.1-6.9c3.6-7.6,2.6-16.8-2.2-20.6
				C823.7,993.7,816.9,996.8,813.4,1004.4z"/>
		</g>
		<g class="st23">
			<path class="st21" d="M837.9,1016.2c-3.6,7.6-3.1,16.9,1.1,20.7c4.2,3.8,10.5,0.7,14.1-7c3.6-7.6,3.1-16.9-1.1-20.7
				C847.7,1005.5,841.4,1008.6,837.9,1016.2z"/>
		</g>
		<g>
			<path class="st21" d="M820.9,1027.1c-1.9,0-3.6-0.6-5.2-1.8c-5.3-4.1-6.5-14.1-2.6-22.2c2.3-4.7,5.7-8,9.6-8.9
				c2.6-0.6,5.2-0.1,7.3,1.6c5.3,4.1,6.5,14.1,2.6,22.2c-2.3,4.7-5.7,8-9.6,8.9C822.3,1027,821.6,1027.1,820.9,1027.1z M824.8,995
				c-0.6,0-1.2,0.1-1.8,0.2c-3.5,0.8-6.8,3.9-8.9,8.3l0,0c-3.7,7.7-2.6,17.1,2.3,20.9c1.9,1.5,4.1,2,6.4,1.4
				c3.5-0.8,6.8-3.9,8.9-8.3c3.7-7.7,2.6-17.1-2.3-20.9C828,995.5,826.4,995,824.8,995z"/>
		</g>
		<g>
			<path class="st21" d="M838.5,1019.5c-0.3,0-0.6-0.1-0.8-0.4c-0.1-0.1-2.1-2.6-6.4-2.7c-0.5,0-1-0.5-0.9-1c0-0.5,0.5-0.9,1-0.9
				c5.3,0.1,7.8,3.3,7.9,3.5c0.3,0.4,0.2,1-0.2,1.3C838.9,1019.4,838.7,1019.5,838.5,1019.5z"/>
		</g>
		<g>
			
				<rect x="789" y="1252.7" transform="matrix(0.9208 -0.3901 0.3901 0.9208 -423.6591 420.1011)" class="st18" width="66.9" height="0.6"/>
		</g>
	</g>
</g>
</svg>
