<?xml version="1.0" encoding="utf-8"?>
<!-- Generator: Adobe Illustrator 25.4.1, SVG Export Plug-In . SVG Version: 6.00 Build 0)  -->
<svg version="1.1" id="Layer_1" xmlns="http://www.w3.org/2000/svg" xmlns:xlink="http://www.w3.org/1999/xlink" x="0px" y="0px"
	 viewBox="0 0 1000 1000" style="enable-background:new 0 0 1000 1000;" xml:space="preserve">
<style type="text/css">
	.st0{fill:#101314;}
	.st1{fill:#92BCB5;}
</style>
<g>
	<path class="st0" d="M280.5,974.5c1.9-20,31.6-46.3,57.6-43.9c21,2,42.4,1.5,63.6,1c27-0.6,40.3-19.7,28.4-41.8
		c-2.4-4.5-13-7.4-19.9-7.5c-76-0.4-152-1.3-228,0.4c-41.4,0.9-74-11.7-95.4-42.6c-8.6-12.4-12.5-29.5-12.6-44.5
		c-0.8-110,0.2-220-0.3-330.1c-0.1-27.4,3.8-52.6,27.7-71.5c7.9-6.2,17.4-11.5,27.2-14.6c4.3-1.4,14.5,2.7,16.1,6.4
		c3.2,7.3,3.3,16.1,2.6,24.1c-0.4,4.5-4.2,9.3-7.7,13c-18.6,19-16.7,41.7-15.8,64.6c0.9,23.5,0.8,46.9,0.8,70.4
		c0.1,58.8,0.1,117.6,0,176.4c0,18.5-1.4,37-0.4,55.3c1.6,28.9,17.7,44.4,50,48.2c13.4,1.6,27.2,1,40.8,1
		c51.6,0,103.9,4.4,154.7-1.3c86.6-9.8,173.6-8.3,259.4-3.3c68.5,4,136.7,1.4,204.9,4.8c34.6,1.7,59.3-20.8,59.3-51.8
		c-0.1-66.6,0-133.3-0.1-199.9c0-7.1-2.1-14.4-0.8-21.2c1.1-5.9,4.3-14.2,9.1-16.2c5.9-2.3,16.1-1.2,21.6,2.2
		c17.6,10.9,21.9,26.5,21.4,46.3c-1.7,59.5-0.1,119-1,178.5c-0.3,18.1-1.9,36.9-7.8,53.9c-4,11.5-14.8,22.6-25.6,30.4
		c-15.6,11.2-33.3,19.1-55.2,19c-78.3-0.1-156.6,1.1-235,1.9c-14.8,0.2-21.7,5.8-19.5,20.7c4.2,28.6,4.4,29.4,36.7,28.8
		c21.5-0.4,42.9-0.7,64.4-1c22.6-0.3,49.9,25.1,47.2,43.8C592.9,974.5,436.7,974.5,280.5,974.5z"/>
	<path class="st1" d="M453.3,152c-2.1,65.1-4,130.1-6.7,195.2c-0.5,12.3,4.5,17.2,17.5,17.9c30.3,1.8,60.7,3.1,90.7,6.6
		c22.4,2.7,44.6,7.9,66.5,13.2c36.6,8.9,73.2,18.1,109.4,28.5c22.5,6.5,44.8,14,65.8,23.6c24.9,11.3,49.2,24.1,72.1,38.5
		c21.2,13.3,40.3,29.3,59.7,44.7c3.3,2.6,3.5,8.4,5.1,12.8c-6,1.1-13.1,4.8-17.7,3c-16.6-6.7-32.4-15.1-48.5-22.9
		c-2.7-1.3-5.1-3.5-8-4.4c-24.6-7.4-49-15.7-74-21.5c-42.7-10-85.5-20.2-128.8-26.9c-31.5-4.9-64-5.1-96.1-5.8
		c-40.9-1-81.8-0.6-122.6-0.3c-18,0.1-36.1,2.3-54.1,1.9c-24.1-0.5-27.7-6.6-27.1-28.2c1.2-44.8,0.7-89.6,0.7-134.4
		c0.1-34.1-1-68.3,0.2-102.4c1.3-35.8,4.4-71.5,7.2-107.2c1-13,7.4-23.6,23.8-23.6c58.9-0.1,118-2.7,176.5,1.8
		c40.2,3.2,79.4,16.8,119,25.6c42.1,9.3,78.4,29.4,113.3,51.5c18.9,12,35.6,26.9,52.4,41.4c2.9,2.5,1.3,9.4,1.8,14.3
		c-4.5,0-10.1,1.6-13.5-0.1c-15-7.9-29.1-17.2-44.2-25.1c-13.2-7-26.8-13.9-41-18.8c-25.1-8.5-50.8-15.5-76.4-22.9
		c-35.1-10.1-70.7-17.5-107.8-16.1c-30.8,1.2-61.6,2.3-92.1,5.8C457.3,119.8,453.8,127.8,453.3,152z"/>
	<path class="st1" d="M161.3,508.6c-2.1-39.2-6.1-78.4-6-117.6c0.1-67,2.2-134,4.8-201c0.2-5.2,9.9-13.9,16-14.6
		c33.4-3.8,67.2-5.4,100.7-8.3c6.2-0.5,12.1-4,18.4-4.7c5.1-0.6,10.4,0.9,15.7,1.4c-2,3.8-3,8.9-6.3,11.2
		c-16.9,11.7-35.1,22.1-51.4,34.4c-5,3.8-7.8,12.7-7.6,19.2c1.8,52.9,4.4,105.7,7.2,158.6c1.3,23.8,3.8,47.5,5.2,71.3
		c0.5,7.8-0.4,15.6-1.1,23.4c-1.3,14.5,4.2,19.5,20.4,18.6c35.7-1.9,71.4-5.9,107.1-5.2c49.4,1,99,3.5,147.8,9.6
		c34.3,4.3,67.7,15.2,101.2,24c22.7,6,45.9,11.6,67.3,20.4c28.9,11.8,56.6,26,84.2,40.2c15.5,8,29.9,17.7,44.1,27.4
		c4,2.8,5.9,8.2,8.7,12.4c-5.2,1.7-11.7,6-15.5,4.6c-17.4-6.4-34.2-14.4-51.1-22c-4.4-2-8.4-5-13.1-6.2c-35.7-9.1-71-20-107.3-26.3
		c-41.2-7.1-83.2-10.2-124.9-14.7c-23.6-2.5-47.3-4.4-70.9-6.4c-3.4-0.3-6.8-0.2-10.2,0.1c-45.9,4-92.1,6.4-137.6,12.8
		c-40.6,5.8-80.6,15.5-120.6,24.6c-16.9,3.9-26.8-0.4-27.2-16.2c-0.6-23.7-0.2-47.4-0.2-71.1C160,508.7,160.6,508.7,161.3,508.6z"/>
	<path class="st1" d="M729,688.8c-64.1,4.6-128.4,7.1-192.1,14.7c-42.3,5-83.7,16.6-125,26.5c-24.2,5.8-48,13.7-71.5,21.7
		c-15.1,5.1-29.3,12.5-44.3,18.1c-9,3.3-14.8-0.5-15.8-9.3c-0.6-5.9-2.8-12.6-0.5-17.5c13.4-29,4.6-59.1,6.9-88.5
		c0.6-7.5,0.6-15.2,1.8-22.6c2.3-14.7,10.5-23,28.5-22.1c6.4,0.3,13.3-2.2,19.6-4.2c14-4.5,26.7,0.2,30.3,13.2
		c3.3,11.6,4.2,23.8,6.2,35.7c2,12,8.6,16,22.5,13.7c16.6-2.7,33.7-3.8,50.7-4.2c80.5-1.6,161-3.3,241.4-3.7c25-0.1,50.2,2.9,75,6.1
		c9,1.1,17.5,6.3,25.5,10.8c2.2,1.2,2.9,6.6,2.1,9.6c-0.4,1.6-5.5,3.1-8.5,3.1c-17.5,0.3-35.1,0.1-52.6,0.1
		C729.1,689.6,729.1,689.2,729,688.8z"/>
</g>
</svg>
